<?xml version="1.0" encoding="iso-8859-1"?>
<!-- Generator: Adobe Illustrator 19.0.0, SVG Export Plug-In . SVG Version: 6.00 Build 0)  -->
<svg version="1.1" id="Layer_1" xmlns="http://www.w3.org/2000/svg" xmlns:xlink="http://www.w3.org/1999/xlink" x="0px" y="0px"
	 viewBox="0 0 371.213 371.213" style="enable-background:new 0 0 371.213 371.213;" xml:space="preserve">
<g>
	<g>
		<path d="M186.691,136.153c-3.709-4.946-9.892-7.418-17.309-7.418H98.908c-13.6,0-24.727,9.892-27.2,22.255l-1.236,9.892
			c-1.236,6.182,1.237,13.6,4.945,18.546c3.709,4.945,9.892,7.418,17.309,7.418H163.2c12.364,0,23.491-9.89,27.2-22.255l1.236-9.892
			C192.872,148.517,190.4,141.099,186.691,136.153z M164.436,159.645c0,1.236-1.237,2.472-2.473,2.472h-68l1.236-7.418
			c0-1.236,1.237-2.472,2.473-2.472h68L164.436,159.645z"/>
	</g>
</g>
<g>
	<g>
		<path d="M362.254,111.426c-6.22-7.258-15.057-11.893-25.766-13.205c-0.035-0.549-0.092-1.094-0.198-1.63
			c-4.945-18.546-24.727-32.145-46.982-32.145H197.91l-31.001-32.148c-2.473-2.474-4.945-3.71-8.654-3.71H48.219
			C19.782,28.587,0,45.896,0,69.388v220.073c0,13.169,5.962,27.389,15.643,37.806c0.147,0.173,0.281,0.35,0.43,0.522
			c7.418,9.89,18.546,14.836,30.909,14.836h1.236H289.31c25.963,0,48.218-24.727,53.163-48.22l28.436-149.6
			C372.145,132.442,369.672,120.079,362.254,111.426z M24.729,69.391c-0.001-12.364,14.835-16.074,23.49-16.074H153.31
			l29.673,30.909c2.201,2.201,4.891,3.416,7.635,3.658c1.72,0.832,3.727,1.289,5.964,1.289h92.728
			c8.519,0,16.309,3.625,20.605,8.653H87.783c-25.964,0-48.219,17.309-51.927,40.8l-11.128,59.993V69.391z M346.181,141.101
			l-28.436,149.6c-2.473,13.6-14.836,27.199-27.2,27.199h-1.235H48.219c-4.788,0-9.804-2.98-13.966-7.357
			c-2.436-4.171-3.142-8.482-2.107-13.662l28.436-153.309c1.237-12.364,13.6-21.018,27.2-21.018l236.145,1.237h6.182
			c6.182,0,11.127,1.236,13.6,4.945C346.181,131.209,347.417,136.156,346.181,141.101z"/>
	</g>
</g>
<g>
</g>
<g>
</g>
<g>
</g>
<g>
</g>
<g>
</g>
<g>
</g>
<g>
</g>
<g>
</g>
<g>
</g>
<g>
</g>
<g>
</g>
<g>
</g>
<g>
</g>
<g>
</g>
<g>
</g>
</svg>
