<svg width="24" height="23" viewBox="0 0 24 23" fill="none" xmlns="http://www.w3.org/2000/svg">
<path d="M12 1.89618C14.717 1.89618 15.056 1.90566 16.122 1.95306C17.187 2.00047 17.912 2.1588 18.55 2.39392C19.21 2.63474 19.766 2.96088 20.322 3.48707C20.8305 3.96101 21.224 4.53431 21.475 5.16707C21.722 5.771 21.89 6.45931 21.94 7.46902C21.987 8.47968 22 8.80108 22 11.377C22 13.953 21.99 14.2744 21.94 15.285C21.89 16.2947 21.722 16.9821 21.475 17.587C21.2247 18.2201 20.8311 18.7935 20.322 19.267C19.822 19.7489 19.2173 20.1219 18.55 20.3601C17.913 20.5943 17.187 20.7536 16.122 20.801C15.056 20.8455 14.717 20.8579 12 20.8579C9.283 20.8579 8.944 20.8484 7.878 20.801C6.813 20.7536 6.088 20.5943 5.45 20.3601C4.78233 20.1226 4.17753 19.7495 3.678 19.267C3.16941 18.7931 2.77593 18.2198 2.525 17.587C2.277 16.983 2.11 16.2947 2.06 15.285C2.013 14.2744 2 13.953 2 11.377C2 8.80108 2.01 8.47968 2.06 7.46902C2.11 6.45836 2.277 5.77195 2.525 5.16707C2.77524 4.53392 3.1688 3.96046 3.678 3.48707C4.17767 3.00471 4.78243 2.63164 5.45 2.39392C6.088 2.1588 6.812 2.00047 7.878 1.95306C8.944 1.9085 9.283 1.89618 12 1.89618ZM12 6.6366C10.6739 6.6366 9.40215 7.13604 8.46447 8.02504C7.52678 8.91404 7 10.1198 7 11.377C7 12.6343 7.52678 13.84 8.46447 14.729C9.40215 15.618 10.6739 16.1174 12 16.1174C13.3261 16.1174 14.5979 15.618 15.5355 14.729C16.4732 13.84 17 12.6343 17 11.377C17 10.1198 16.4732 8.91404 15.5355 8.02504C14.5979 7.13604 13.3261 6.6366 12 6.6366V6.6366ZM18.5 6.39958C18.5 6.08527 18.3683 5.78383 18.1339 5.56158C17.8995 5.33933 17.5815 5.21448 17.25 5.21448C16.9185 5.21448 16.6005 5.33933 16.3661 5.56158C16.1317 5.78383 16 6.08527 16 6.39958C16 6.71389 16.1317 7.01533 16.3661 7.23758C16.6005 7.45983 16.9185 7.58469 17.25 7.58469C17.5815 7.58469 17.8995 7.45983 18.1339 7.23758C18.3683 7.01533 18.5 6.71389 18.5 6.39958ZM12 8.53277C12.7956 8.53277 13.5587 8.83243 14.1213 9.36583C14.6839 9.89923 15 10.6227 15 11.377C15 12.1314 14.6839 12.8548 14.1213 13.3882C13.5587 13.9216 12.7956 14.2213 12 14.2213C11.2044 14.2213 10.4413 13.9216 9.87868 13.3882C9.31607 12.8548 9 12.1314 9 11.377C9 10.6227 9.31607 9.89923 9.87868 9.36583C10.4413 8.83243 11.2044 8.53277 12 8.53277V8.53277Z" fill="#454444"/>
</svg>
