<svg width="24" height="23" viewBox="0 0 24 23" fill="none" xmlns="http://www.w3.org/2000/svg">
<path d="M18.335 17.3869H15.67V13.4268C15.67 12.4825 15.65 11.267 14.28 11.267C12.891 11.267 12.679 12.2947 12.679 13.3575V17.3869H10.013V9.24381H12.573V10.3531H12.608C12.966 9.71406 13.836 9.03807 15.136 9.03807C17.836 9.03807 18.336 10.7238 18.336 12.9167V17.3869H18.335ZM7.003 8.12981C6.79956 8.13006 6.59806 8.09224 6.41006 8.01851C6.22207 7.94478 6.05127 7.8366 5.90746 7.70017C5.76365 7.56374 5.64965 7.40174 5.57201 7.22345C5.49437 7.04517 5.4546 6.85411 5.455 6.66123C5.4552 6.37096 5.54618 6.08726 5.71644 5.84601C5.8867 5.60477 6.12859 5.4168 6.41153 5.30589C6.69447 5.19499 7.00574 5.16611 7.30598 5.22293C7.60622 5.27974 7.88196 5.41969 8.09831 5.62507C8.31466 5.83046 8.46191 6.09205 8.52145 6.37678C8.58099 6.66151 8.55013 6.95659 8.43278 7.22469C8.31544 7.49279 8.11687 7.72189 7.86219 7.883C7.60751 8.04411 7.30817 8.13 7.002 8.12981H7.003ZM8.339 17.3869H5.666V9.24381H8.34V17.3869H8.339ZM19.67 2.84424H4.329C3.593 2.84424 3 3.39413 3 4.0739V18.6801C3 19.3599 3.594 19.9098 4.328 19.9098H19.666C20.4 19.9098 21 19.3599 21 18.6801V4.0739C21 3.39413 20.4 2.84424 19.666 2.84424H19.669H19.67Z" fill="#454444"/>
</svg>
