<svg height="512" viewBox="0 0 60 60" width="512" xmlns="http://www.w3.org/2000/svg"><g id="Page-1" fill="none" fill-rule="evenodd"><g id="047---Ball-of-Wool" fill="rgb(0,0,0)" fill-rule="nonzero" transform="translate(0 -1)"><path id="Shape" d="m59.627 14.681c.4472806-.9609805.4939045-2.0604181.1295881-3.0558161-.3643164-.9953979-1.1096433-1.80498095-2.0715881-2.2501839-.2248966-.10326776-.4593433-.18431931-.7-.242.0655204-1.6835963-.9356555-3.22620803-2.5-3.852-.5146178-.20134827-1.0660707-.29132575-1.618-.264-.384643-1.53108382-1.6362408-2.69115777-3.1920734-2.95865104-1.5558327-.26749328-3.1230098.40795055-3.9969266 1.72265104-5.9529237-3.00242538-12.8327387-3.59967382-19.214-1.668l-.064.017h-.009c-5.1372148 1.57181287-9.6599367 4.69935328-12.944 8.951-.012.015-.024.029-.036.045-3.52582838 4.5385588-5.43072378 10.1268622-5.411 15.874.00789912 1.0364758.07668429 2.0715925.206 3.1-1.68687334.3299989-2.97085297 1.7063609-3.18304221 3.4120621-.21218923 1.7057013.69543567 3.3546989 2.25004221 4.0879379-.40879733 1.0594906-.34306272 2.2434988.18050385 3.2512258.52356656 1.0077269 1.45457312 1.7421814 2.55649615 2.0167742-.0093353.2234189.0003664.447227.029.669.2722548 1.9804545 1.9619266 3.4576909 3.961 3.463.1777135-.0000523.3551858-.013087.531-.039.119-.016.486-.067 1.052-.165-.3896354 1.3672459-.5858745 2.7823218-.583 4.204.0680059.5484768-.1207305 1.0976666-.511532 1.488468-.3908014.3908015-.9399912.5795379-1.488468.511532-.806 0-.95 0-2.056-1.977-.977-1.755-2.797-5.023-6.944-5.023-2.20523275.0055131-3.99000689 1.7947604-3.99 4 .01705456 1.9640019 1.44413754 3.6311825 3.382 3.951.18.284.421.71.57.975 1.184 2.123 3.388 6.074 9.038 6.074 6.565 0 10-5.03 10-10 0-.149.015-.288.022-.432 3.4389994 1.5991598 7.1853729 2.4291088 10.978 2.432.539 0 1.077-.021 1.62-.05h.063c2.6132542-.1636469 5.185892-.7275497 7.628-1.672.7998769-.2985363 1.5809691-.645169 2.339-1.038.0278687-.0099414.0549459-.0219757.081-.036 11.9655377-6.0523365 17.3686132-20.2095376 12.478-32.695.491-.917.969-1.855 1.418-2.828zm-14.808-9.1c-.7201171 1.6550236-1.5673164 3.25179708-2.534 4.776-5.143-3.354-12.106-3.719-16.066-3.6.353-.938.74-1.882 1.18-2.828 5.8107107-1.62965736 12.019824-1.04011239 17.42 1.654zm-19.826 19.449c-.4421526-1.5490919-.7321918-3.137609-.866-4.743 2.0980355.2991882 4.1331429.9389382 6.025 1.894-1.6619172 1.0506769-3.3845996 2.002009-5.159 2.849zm-4.93 2.07c-1.693072-6.9752426-1.0208686-14.3153095 1.911-20.867.9168889-.52931277 1.8679909-.99701307 2.847-1.4-.37.9-.712 1.79-1.005 2.672v.008c-.5979599 1.78041229-1.052084 3.6059378-1.358 5.459-.3496481 2.0453847-.4880426 4.1213025-.413 6.195.0874193 2.2714395.4620648 4.5226725 1.115 6.7-1.06.457-2.095.867-3.097 1.233zm11.929-6.153c-2.43764-1.4440735-5.1497604-2.3636672-7.963-2.7-.0072175-1.3415685.0810051-2.6819511.264-4.011 3.131.372 7.894 1.338 11.344 3.841-1.1607989 1.0238778-2.3776806 1.9823598-3.645 2.871zm5.134-4.255c-3.807-2.909-9.062-4.013-12.507-4.431.2339749-1.1730692.530735-2.33273674.889-3.474 3.519-.176 10.626-.042 15.654 3.225-1.2106538 1.6715688-2.5608204 3.2375078-4.036 4.681zm-18.111-8.411c-2.1573656 6.2756421-2.4518864 13.0416321-.848 19.481-1.155.379-2.24.7-3.244.964-1.114295-5.4614186-1.0460993-11.0981386.2-16.531 1.1401707-1.4520577 2.4463921-2.76566268 3.892-3.914zm-6.651 8.355c-.4407488 4.1988286-.2326461 8.4404803.617 12.576-1.129.26-2.075.444-2.8.569-.1126021-.9228568-.1730316-1.8513331-.181-2.781-.00397141-3.5887715.8042106-7.131918 2.364-10.364zm-3.564 15.374c.022 0 .224-.026.551-.073.036 0 .072 0 .109-.008.012 0 .021-.01.033-.012.878-.13 2.555-.417 4.747-.957.0436289-.0019772.0870673-.0069893.13-.015.0292845-.0112195.0579873-.0239022.086-.038 1.5-.376 3.226-.871 5.1-1.514.025 0 .05 0 .076-.01s.057-.033.089-.046c1.553-.538 3.2-1.176 4.893-1.937.026-.006.052 0 .077-.012.0731572-.0313283.1423131-.0712776.206-.119 2.630106-1.1899492 5.1562212-2.5975091 7.552-4.208.034545-.0186452.0679385-.0393492.1-.062 1.8663461-1.2697207 3.6319214-2.6815792 5.281-4.223.0418298-.0258281.0813143-.0552742.118-.088.014-.015.018-.036.031-.052 2.0002277-1.8846681 3.7930954-3.9779116 5.348-6.244.01-.013.026-.017.035-.03.0145933-.02586.0276168-.052575.039-.08 1.4997987-2.1991791 2.7564901-4.55463708 3.748-7.025.2513102-.68330623.8540864-1.17607017 1.5737179-1.28649974.7196315-.11042956 1.4424256.17892174 1.8870586.75543346.4446329.57651172.5408582 1.34910227.2512235 2.01706628-10.337 25.829-40.387 29.12-41.661 29.247-.71095852.0714531-1.40603108-.2418133-1.82339055-.8217949-.41735948-.5799816-.49359905-1.3385653-.2-1.99.29359904-.6514347.91243203-1.096752 1.62339055-1.1682051zm.225 7.29c-.07314858-.453762.01532959-.9188033.25-1.314.041 0 .08 0 .121-.006 1.324-.132 32.539-3.551 43.316-30.495.0545895-.15307274.0996753-.30937012.135-.468.3006698-.03077635.604349.01035401.886.12 1.0044093.39408001 1.5124878 1.51619771 1.146 2.531v.005.011c-.0103108.02746443-.0189925.05551314-.026.084-10.377 25.878-42.191 31-43.54 31.2-.025 0-.107.012-.13.018-.0612669.0000154-.1224437.0046956-.183.014-.9886463.0021081-1.82892783-.7219053-1.973-1.7zm5.229 5.68c-.0840771.0127528-.1689631.0194367-.254.02-1.0021991-.0019528-1.8482147-.7453692-1.979-1.739-.0156162-.1257276-.0182969-.2527254-.008-.379 3.933-.672 33.9-6.588 44.45-31.818.1301087.0287508.2570587.0702859.379.124.481074.2224735.8537796.6273241 1.0357855 1.1251197s.1583344 1.0475711-.0657855 1.5278803c-2.7454478 5.9527577-6.6349363 11.3073878-11.447 15.759l-.011.01c-4.4751561 4.1111754-9.5622308 7.5016589-15.079 10.05-.0886544.0239889-.1734878.0603461-.252.108-.007 0-.01.012-.017.017-1.841.853-3.616 1.575-5.28 2.18-.0690947.0170806-.1361482.0415552-.2.073-3.6499138 1.351642-7.4251376 2.3371529-11.27 2.942zm30.207 3.609c-.483.24-.973.459-1.475.659-1.427951-.6513012-2.7834124-1.4510368-4.044-2.386 1.9500934-3.4026815 3.0136746-7.240927 3.093-11.162 1.423-1.014 2.833-2.127 4.219-3.325.167 3.691.124 10.452-1.791 16.214zm-8.675 2.34c-3.5850825-1.5315059-6.6511106-4.0665615-8.829-7.3 1.375-.514 2.813-1.1 4.3-1.771 1.6289383 2.25161 3.5482107 4.2781438 5.708 6.027l.046.034c1.0466579.8250598 2.1560157 1.5673065 3.318 2.22-1.48424.4109766-3.005169.6755734-4.541.79zm-13.106-2.762c-1.1720398-.6270134-2.2890118-1.3519246-3.339-2.167 1.605-.4 3.54-.945 5.693-1.679 1.6443864 2.6426281 3.863827 4.8801852 6.493 6.546-3.0961261-.3180737-6.1008755-1.2350878-8.847-2.7zm14.668-2.577c-1.5712236-1.3799024-2.9924281-2.9217752-4.24-4.6 2.351149-1.1457593 4.6300651-2.4341617 6.824-3.858-.2367954 2.9735485-1.1185758 5.8598094-2.584 8.458zm-24.348 13.41c-4.476 0-6.17-3.038-7.339-5.132-.27952662-.555381-.61851197-1.0787798-1.011-1.561-.18078653-.1883497-.42806389-.2985299-.689-.307-1.08042335-.0379041-1.9399021-.9189689-1.951-2-.00001376-1.100676.88933775-1.9944966 1.99-2 2.972 0 4.311 2.405 5.2 4 1.1 1.973 1.774 3 3.8 3 1.0784038.0609696 2.1316304-.3408408 2.8953948-1.1046052s1.1655748-1.816991 1.1046052-2.8953948c-.0068908-1.3084167.1804846-2.6106087.556-3.864 1.1143347.9098299 2.3031881 1.7243651 3.554 2.435-.0703164.4731437-.1070748.9506688-.11 1.429.0714981 2.1428513-.7483748 4.2194893-2.2644427 5.7355573-1.516068 1.5160679-3.592706 2.3359408-5.7355573 2.2644427zm33.956-11.8c1.2538918-5.4220277 1.6587094-11.0058108 1.2-16.552 1.4502834-1.3731555 2.821487-2.8274927 4.107-4.356 1.0074212 5.5125578.8958762 11.1714245-.328 16.64-1.4561192 1.6442342-3.1314878 3.0803604-4.979 4.268zm11.044-20.2c.0009145 4.325026-1.1676573 8.5698234-3.382 12.285.5984281-5.0187211.3557668-10.1021031-.718-15.041 1.0759845-1.4265225 2.077327-2.9078419 3-4.438.7313724 2.3278762 1.1023297 4.753937 1.1 7.194z"/></g></g></svg>