<?xml version="1.0" encoding="UTF-8"?>
<svg xmlns="http://www.w3.org/2000/svg" xmlns:xlink="http://www.w3.org/1999/xlink" xmlns:svgjs="http://svgjs.com/svgjs" version="1.1" width="512" height="512" x="0" y="0" viewBox="0 0 64 64" style="enable-background:new 0 0 512 512" xml:space="preserve" class="">
  <g>
    <g xmlns="http://www.w3.org/2000/svg" id="Application">
      <path d="m25 44h14v2h-14z" fill="#ffffff" data-original="#000000" style="" class=""/>
      <path d="m21 44h2v2h-2z" fill="#ffffff" data-original="#000000" style="" class=""/>
      <path d="m61 6h-14v-1a3.009 3.009 0 0 0 -3-3h-24a3.009 3.009 0 0 0 -3 3v4h-14a1 1 0 0 0 -1 1v12a1 1 0 0 0 1 1h14v2a5 5 0 0 0 -5 5v4.09l2 20.95v5.96a1 1 0 0 0 1 1h22a1 1 0 0 0 1-1v-5.68l3.72-5.32h2.28a3.009 3.009 0 0 0 3-3v-1h1a3.985 3.985 0 0 0 2.62-7 3.951 3.951 0 0 0 0-6 3.951 3.951 0 0 0 0-6 3.985 3.985 0 0 0 -2.62-7h-1v-2h14a1 1 0 0 0 1-1v-10a1 1 0 0 0 -1-1zm-21.28-2-.31 1.24a1 1 0 0 1 -.97.76h-12.88a1 1 0 0 1 -.97-.76l-.31-1.24zm-35.72 17v-10h18v10zm32 39h-20v-4h20zm.48-6h-20.57l-1.91-20v-4a3.009 3.009 0 0 1 3-3h7a3 3 0 0 1 0 6h-6a1 1 0 0 0 -1 1v13a3.009 3.009 0 0 0 3 3h19.28zm8.52-7a1 1 0 0 1 -1 1h-24a1 1 0 0 1 -1-1v-12h5a5 5 0 0 0 0-10h-5v-2h4a1 1 0 0 0 1-1v-12a1 1 0 0 0 -1-1h-4v-4a1 1 0 0 1 1-1h2.22l.43 1.73a3 3 0 0 0 2.91 2.27h12.88a3 3 0 0 0 2.91-2.27l.43-1.73h2.22a1 1 0 0 1 1 1v1h-2a1 1 0 0 0 -1 1v10a1 1 0 0 0 1 1h2v2h-1a3.985 3.985 0 0 0 -2.62 7 3.951 3.951 0 0 0 0 6 3.951 3.951 0 0 0 0 6 3.985 3.985 0 0 0 2.62 7h1zm3-3h-4a2 2 0 0 1 0-4h4a2 2 0 0 1 0 4zm0-6h-4a2 2 0 0 1 0-4h4a2 2 0 0 1 0 4zm0-6h-4a2 2 0 0 1 0-4h4a2 2 0 0 1 0 4zm0-10a2 2 0 0 1 0 4h-4a2 2 0 0 1 0-4zm12-6h-16v-8h16z" fill="#ffffff" data-original="#000000" style="" class=""/>
      <path d="m6 13h2v2h-2z" fill="#ffffff" data-original="#000000" style="" class=""/>
      <path d="m10 13h10v2h-10z" fill="#ffffff" data-original="#000000" style="" class=""/>
      <path d="m6 17h14v2h-14z" fill="#ffffff" data-original="#000000" style="" class=""/>
      <path d="m46 11h4v2h-4z" fill="#ffffff" data-original="#000000" style="" class=""/>
      <path d="m52 11h6v2h-6z" fill="#ffffff" data-original="#000000" style="" class=""/>
    </g>
  </g>
</svg>
